<svg xmlns="http://www.w3.org/2000/svg" viewBox="0 0 120 120" fill="none">
  <rect width="120" height="120" rx="24" fill="#0B1E33"/>
  <g transform="translate(0, 30)">
    <path d="M12 30 C 16 14, 38 12, 52 22 C 62 30, 68 30, 78 22 C 92 12, 104 14, 108 22"
          stroke="#E1D9C6" stroke-width="4" stroke-linecap="round" fill="none"/>
    <path d="M12 30 C 16 46, 32 48, 46 38 C 56 31, 64 31, 74 38 C 88 48, 104 46, 108 30"
          stroke="#E1D9C6" stroke-width="4" stroke-linecap="round" fill="none"/>
    <path d="M108 22 C 111 25, 111 27, 108 30" stroke="#E1D9C6" stroke-width="4" stroke-linecap="round" fill="none"/>
    <path d="M12 30 C 9 27, 9 25, 12 22" stroke="#E1D9C6" stroke-width="4" stroke-linecap="round" fill="none"/>
  </g>
</svg>
