<svg xmlns="http://www.w3.org/2000/svg" viewBox="0 0 240 68" fill="none">
  <!-- Símbolo: mãos entrelaçadas em elo horizontal (manual, pg. 6) -->
  <g transform="translate(0, 6)">
    <path d="M10 28 C 16 10, 40 8, 56 20 C 66 27, 78 27, 88 20 C 104 8, 128 10, 134 28"
          stroke="#173F65" stroke-width="3" stroke-linecap="round" fill="none"/>
    <path d="M10 28 C 16 46, 34 48, 50 38 C 60 31, 72 31, 82 38 C 98 48, 128 46, 134 28"
          stroke="#173F65" stroke-width="3" stroke-linecap="round" fill="none"/>
    <path d="M134 20 C 138 23, 138 25, 134 28" stroke="#173F65" stroke-width="3" stroke-linecap="round" fill="none"/>
    <path d="M10 28 C 6 25, 6 23, 10 20" stroke="#173F65" stroke-width="3" stroke-linecap="round" fill="none"/>
  </g>
  <!-- Wordmark AFFIDA em caps com geometria "extended" -->
  <text x="150" y="30" font-family="Montserrat, system-ui, sans-serif" font-size="20" font-weight="500" letter-spacing="4" fill="#0B1E33">AFFIDA</text>
  <text x="150" y="52" font-family="Montserrat, system-ui, sans-serif" font-size="9" font-weight="300" letter-spacing="6" fill="#2C567E">PARTNERS</text>
</svg>
