<svg xmlns="http://www.w3.org/2000/svg" width="240" height="160" viewBox="0 0 240 160" fill="none">
  <g opacity="0.06">
    <path d="M30 80 C 30 70, 50 66, 60 74 C 70 82, 80 82, 90 74 C 100 66, 120 70, 120 80 C 120 90, 100 94, 90 86 C 80 78, 70 78, 60 86 C 50 94, 30 90, 30 80 Z" stroke="#D4C29A" stroke-width="1.5" fill="none"/>
    <path d="M140 40 C 140 32, 156 28, 164 34 C 172 40, 180 40, 188 34 C 196 28, 212 32, 212 40 C 212 48, 196 52, 188 46 C 180 40, 172 40, 164 46 C 156 52, 140 48, 140 40 Z" stroke="#D4C29A" stroke-width="1.2" fill="none"/>
    <path d="M70 130 C 70 124, 82 120, 90 124 C 98 130, 106 130, 114 124 C 122 120, 134 124, 134 130 C 134 136, 122 140, 114 136 C 106 130, 98 130, 90 136 C 82 140, 70 136, 70 130 Z" stroke="#D4C29A" stroke-width="1" fill="none"/>
  </g>
</svg>
